<svg width="48" height="49" viewBox="0 0 48 49" fill="none" xmlns="http://www.w3.org/2000/svg">
<path fill-rule="evenodd" clip-rule="evenodd" d="M37.9728 28.475C39.3005 26.3912 40.0039 23.9709 39.9998 21.5C39.9998 14.32 34.1798 8.50001 26.9998 8.50001C24.4328 8.50001 22.0398 9.24401 20.0248 10.527C18.6839 10.6027 17.3566 10.837 16.0708 11.225C17.472 9.73126 19.165 8.54114 21.045 7.72838C22.9249 6.91561 24.9517 6.49753 26.9998 6.50001C35.2838 6.50001 41.9998 13.216 41.9998 21.5C42.0023 23.5481 41.5842 25.5749 40.7714 27.4548C39.9587 29.3348 38.7686 31.0278 37.2748 32.429C37.6558 31.166 37.8958 29.842 37.9728 28.475Z" fill="#8E8F94"/>
<path fill-rule="evenodd" clip-rule="evenodd" d="M39.9328 29.103C39.2095 30.3324 38.3144 31.4524 37.2748 32.429C37.6558 31.166 37.8948 29.842 37.9718 28.475C39.2999 26.3913 40.0036 23.971 39.9998 21.5C39.9998 14.32 34.1798 8.50002 26.9998 8.50002C24.4328 8.50002 22.0398 9.24402 20.0248 10.527C18.6839 10.6027 17.3566 10.837 16.0708 11.225C17.0474 10.1854 18.1674 9.29037 19.3968 8.56702C21.7003 7.20967 24.3261 6.49581 26.9998 6.50002C35.2838 6.50002 41.9998 13.216 41.9998 21.5C41.9998 21.6507 41.9975 21.801 41.9928 21.951C41.9222 24.4709 41.2134 26.9317 39.9328 29.103Z" fill="#8E8F94"/>
<path fill-rule="evenodd" clip-rule="evenodd" d="M36 27.5C36 35.784 29.284 42.5 21 42.5C12.716 42.5 6 35.784 6 27.5C6 19.216 12.716 12.5 21 12.5C29.284 12.5 36 19.216 36 27.5ZM20 22.5C19.4696 22.5 18.9609 22.7107 18.5858 23.0858C18.2107 23.4609 18 23.9696 18 24.5C18 25.0304 18.2107 25.5391 18.5858 25.9142C18.9609 26.2893 19.4696 26.5 20 26.5V22.5ZM22 20.5V19.5H20V20.5C18.9391 20.5 17.9217 20.9214 17.1716 21.6716C16.4214 22.4217 16 23.4391 16 24.5C16 25.5609 16.4214 26.5783 17.1716 27.3284C17.9217 28.0786 18.9391 28.5 20 28.5V32.5C19.13 32.5 18.389 31.945 18.113 31.167C18.0721 31.0397 18.006 30.9219 17.9187 30.8206C17.8315 30.7193 17.7248 30.6365 17.605 30.5772C17.4851 30.5178 17.3546 30.4831 17.2212 30.4751C17.0877 30.467 16.954 30.4858 16.8279 30.5304C16.7018 30.5749 16.586 30.6443 16.4872 30.7344C16.3884 30.8245 16.3087 30.9335 16.2527 31.0549C16.1968 31.1764 16.1658 31.3078 16.1616 31.4415C16.1573 31.5751 16.1799 31.7082 16.228 31.833C16.5037 32.6131 17.0145 33.2884 17.6901 33.7661C18.3656 34.2437 19.1727 34.5001 20 34.5V35.5H22V34.5C23.0609 34.5 24.0783 34.0786 24.8284 33.3284C25.5786 32.5783 26 31.5609 26 30.5C26 29.4391 25.5786 28.4217 24.8284 27.6716C24.0783 26.9214 23.0609 26.5 22 26.5V22.5C22.87 22.5 23.611 23.055 23.887 23.833C23.9279 23.9603 23.994 24.0781 24.0813 24.1794C24.1685 24.2807 24.2752 24.3635 24.395 24.4228C24.5149 24.4822 24.6454 24.5169 24.7788 24.5249C24.9123 24.533 25.046 24.5142 25.1721 24.4696C25.2982 24.4251 25.414 24.3557 25.5128 24.2656C25.6116 24.1755 25.6913 24.0665 25.7473 23.9451C25.8032 23.8236 25.8342 23.6922 25.8384 23.5585C25.8427 23.4249 25.8201 23.2918 25.772 23.167C25.4963 22.3869 24.9855 21.7116 24.3099 21.2339C23.6344 20.7563 22.8273 20.4999 22 20.5ZM22 28.5V32.5C22.5304 32.5 23.0391 32.2893 23.4142 31.9142C23.7893 31.5391 24 31.0304 24 30.5C24 29.9696 23.7893 29.4609 23.4142 29.0858C23.0391 28.7107 22.5304 28.5 22 28.5Z" fill="#8E8F94"/>
</svg>
