<svg width="36" height="36" viewBox="0 0 36 36" fill="none" xmlns="http://www.w3.org/2000/svg">
<path d="M23.7225 7.5V9.375H24.3405C26.517 9.375 28.3605 11.0265 28.5195 13.2045L29.6145 28.2045C29.79 30.618 27.8415 32.625 25.4355 32.625H10.5645C8.15851 32.625 6.21001 30.618 6.38551 28.2045L7.48051 13.2045C7.63951 11.025 9.48301 9.375 11.6595 9.375H12.2775V7.5C12.2775 5.199 14.1765 3.375 16.4685 3.375H19.533C21.8235 3.375 23.7225 5.199 23.7225 7.5ZM14.5275 7.5V9.375H21.4725V7.5C21.4725 6.4875 20.6265 5.625 19.533 5.625H16.4685C15.3735 5.625 14.5275 6.4875 14.5275 7.5Z" fill="white"/>
</svg>
