<svg width="36" height="37" viewBox="0 0 36 37" fill="none" xmlns="http://www.w3.org/2000/svg">
<mask id="mask0_192_745" style="mask-type:luminance" maskUnits="userSpaceOnUse" x="2" y="2" width="32" height="33">
<path d="M18 33.5C26.2845 33.5 33 26.7845 33 18.5C33 10.2155 26.2845 3.5 18 3.5C9.7155 3.5 3 10.2155 3 18.5C3 26.7845 9.7155 33.5 18 33.5Z" fill="white" stroke="white" stroke-width="2" stroke-linejoin="round"/>
<path d="M18 14C18.5967 14 19.169 13.7629 19.591 13.341C20.0129 12.919 20.25 12.3467 20.25 11.75C20.25 11.1533 20.0129 10.581 19.591 10.159C19.169 9.73705 18.5967 9.5 18 9.5C17.4033 9.5 16.831 9.73705 16.409 10.159C15.9871 10.581 15.75 11.1533 15.75 11.75C15.75 12.3467 15.9871 12.919 16.409 13.341C16.831 13.7629 17.4033 14 18 14ZM18 27.5C18.5967 27.5 19.169 27.2629 19.591 26.841C20.0129 26.419 20.25 25.8467 20.25 25.25C20.25 24.6533 20.0129 24.081 19.591 23.659C19.169 23.2371 18.5967 23 18 23C17.4033 23 16.831 23.2371 16.409 23.659C15.9871 24.081 15.75 24.6533 15.75 25.25C15.75 25.8467 15.9871 26.419 16.409 26.841C16.831 27.2629 17.4033 27.5 18 27.5ZM11.25 20.75C11.8467 20.75 12.419 20.5129 12.841 20.091C13.2629 19.669 13.5 19.0967 13.5 18.5C13.5 17.9033 13.2629 17.331 12.841 16.909C12.419 16.4871 11.8467 16.25 11.25 16.25C10.6533 16.25 10.081 16.4871 9.65901 16.909C9.23705 17.331 9 17.9033 9 18.5C9 19.0967 9.23705 19.669 9.65901 20.091C10.081 20.5129 10.6533 20.75 11.25 20.75ZM24.75 20.75C25.3467 20.75 25.919 20.5129 26.341 20.091C26.7629 19.669 27 19.0967 27 18.5C27 17.9033 26.7629 17.331 26.341 16.909C25.919 16.4871 25.3467 16.25 24.75 16.25C24.1533 16.25 23.581 16.4871 23.159 16.909C22.7371 17.331 22.5 17.9033 22.5 18.5C22.5 19.0967 22.7371 19.669 23.159 20.091C23.581 20.5129 24.1533 20.75 24.75 20.75Z" fill="black" stroke="black" stroke-width="2" stroke-linejoin="round"/>
<path d="M18 33.5H33" stroke="white" stroke-width="2" stroke-linecap="round"/>
</mask>
<g mask="url(#mask0_192_745)">
<path d="M0 0.5H36V36.5H0V0.5Z" fill="#EBBC41"/>
</g>
</svg>
